<?xml version="1.0" standalone="no"?><!DOCTYPE svg PUBLIC "-//W3C//DTD SVG 1.1//EN" "http://www.w3.org/Graphics/SVG/1.1/DTD/svg11.dtd"><svg t="1571583329182" class="icon" viewBox="0 0 1024 1024" version="1.1" xmlns="http://www.w3.org/2000/svg" p-id="5512" xmlns:xlink="http://www.w3.org/1999/xlink" width="64" height="64"><defs><style type="text/css"></style></defs><path d="M713.708 97.118c8.182 0 23.294 1.338 32.93 10.322 2.202 2.023 8.865 8.24 8.865 23.56 0 17.223-9.34 44.324-35.546 68.746-32.1 29.895-85.02 52.473-123.095 52.473-11.006 0-16.182-2.023-17.045-2.023a0.245 0.245 0 0 0-0.12 0.029c-7.05-14.338 8.375-76.599 52.713-117.947 23.617-22.013 54.02-35.16 81.298-35.16m0-72.88c-43.952 0-92.424 18.8-131.006 54.705-66.306 61.844-104.994 175.806-53.396 223.878 16.598 15.498 40.528 22.25 67.556 22.25 56.994 0 127.765-30.073 172.8-71.988 66.278-61.784 78.266-150.907 26.656-198.98-21.597-20.109-50.929-29.896-82.61-29.865z m-372.45 72.88c27.277 0 57.694 13.147 81.342 35.16 44.682 41.646 59.97 104.503 53.784 116.937-0.074 0.03-4.818 3.005-18.25 3.005-38.093 0-90.953-22.578-123.02-52.473-26.238-24.423-35.577-51.552-35.577-68.745 0-15.32 6.633-21.539 8.835-23.561 9.669-8.985 24.764-10.323 32.886-10.323m0-72.88c-31.666 0-60.967 9.757-82.592 29.866-51.552 48.072-39.564 137.196 26.743 198.98 44.978 41.915 115.747 71.989 172.727 71.989 27.039 0 50.972-6.754 67.57-22.251 51.626-48.073 12.91-162.033-53.396-223.878-38.583-35.907-87.072-54.706-131.052-54.706z m614.86 586.555V360.797c0-39.296-32.157-71.422-71.424-71.422H563.247v321.42l392.871-0.002z m-392.871 71.453v321.45h321.447c39.267 0 71.424-32.128 71.424-71.452V682.246H563.247z m-71.453-71.453V289.375h-321.45c-39.311 0-71.424 32.126-71.424 71.422v249.997h392.874zM98.92 682.246v249.998c0 39.324 32.114 71.453 71.424 71.453h321.45v-321.45H98.92z" fill="" p-id="5513"></path></svg>