<?xml version="1.0" standalone="no"?><!DOCTYPE svg PUBLIC "-//W3C//DTD SVG 1.1//EN" "http://www.w3.org/Graphics/SVG/1.1/DTD/svg11.dtd"><svg t="1571583175636" class="icon" viewBox="0 0 1024 1024" version="1.1" xmlns="http://www.w3.org/2000/svg" p-id="2682" xmlns:xlink="http://www.w3.org/1999/xlink" width="64" height="64"><defs><style type="text/css"></style></defs><path d="M879.196943 838.172857c4.415983-31.295883-3.583987-47.199823-23.96791-47.679821a282.366941 282.366941 0 0 0-12.095955 0l70.591736-97.215636c10.62396-26.975899 1.855993-40.479848-26.271902-40.479848h-48.639818l-72.607727 115.743566-8.15997 20.095925h-0.959996l-3.391987-21.023922a1627.129898 1627.129898 0 0 1-27.199898-80.191699c-7.103973-23.071913-22.879914-34.62387-47.263823-34.62387h-68.287744l59.615776 138.175482H621.43791c-7.135973 38.879854 1.183996 58.335781 25.023906 58.335781h49.567814l5.27998 12.607953-1.919993 14.911944-89.567664 0.064c-13.695949 40.735847-2.207992 61.119771 34.495871 61.11977h45.951827c-0.671997 6.399976-1.535994 13.151951-2.52799 20.159925-1.983993 14.015947 5.663979 20.863922 15.679941 24.223909A457.246285 457.246285 0 0 1 511.99832 1023.99616C264.575248 1023.99616 64 829.148891 64 588.797792c0-114.527571 45.535829-218.71918 119.99955-296.414888L143.423702 224.191159a51.039809 51.039809 0 0 1 18.879929-70.591735 53.663799 53.663799 0 0 1 72.383729 19.391927l31.039884 52.159805a453.598299 453.598299 0 0 1 193.535274-68.575743V89.599664H372.318844a44.799832 44.799832 0 1 1 0-89.599664h279.358952a44.799832 44.799832 0 0 1 0 89.599664h-86.975674v66.975749a453.4063 453.4063 0 0 1 202.335242 74.367721l34.46387-57.951783a53.663799 53.663799 0 0 1 72.383729-19.391927 51.039809 51.039809 0 0 1 18.879929 70.591735l-45.27983 76.191715C917.500799 377.182586 959.99664 478.174207 959.99664 588.797792c0 92.767652-29.887888 178.75133-80.799697 249.375065z m-8.319969 11.135958c-7.519972 9.791963-15.487942 19.263928-23.83991 28.415894a38.623855 38.623855 0 0 0-8.255969-0.831997c-25.599904 0-42.143842 0-49.503815-0.064l2.399991-15.359943 9.151966-12.159954h70.079737z m-306.238851-245.695079l104.383608-58.55978a25.151906 25.151906 0 0 0 9.311965-34.78387 26.431901 26.431901 0 0 0-35.647866-9.535964l-102.591615 57.535784a53.599799 53.599799 0 0 0-41.759844-6.143976l-190.079287-184.671308a26.7519 26.7519 0 0 0-37.823858 0.511998 25.247905 25.247905 0 0 0 0.543998 35.679866l190.079287 184.703308a49.919813 49.919813 0 0 0-1.759993 13.24795c0 28.287894 23.583912 51.199808 52.703802 51.199808 28.415893 0 51.583807-21.855918 52.671802-49.183816z" p-id="2683"></path></svg>